<svg xmlns="http://www.w3.org/2000/svg" viewBox="0 0 32 32" width="32" height="32">
  <defs>
    <linearGradient id="fg" x1="0%" y1="0%" x2="100%" y2="100%">
      <stop offset="0%" stop-color="#22d3ee"/>
      <stop offset="100%" stop-color="#a78bfa"/>
    </linearGradient>
  </defs>
  <circle cx="16" cy="16" r="15.5" fill="#0a0a18"/>
  <line x1="6" y1="8" x2="10" y2="24" stroke="#22d3ee" stroke-width="2.5" stroke-linecap="round"/>
  <line x1="10" y1="24" x2="14" y2="14" stroke="#38bdf8" stroke-width="2.5" stroke-linecap="round"/>
  <line x1="14" y1="14" x2="16" y2="19" stroke="#a78bfa" stroke-width="2.5" stroke-linecap="round"/>
  <line x1="16" y1="19" x2="18" y2="14" stroke="#a78bfa" stroke-width="2.5" stroke-linecap="round"/>
  <line x1="18" y1="14" x2="22" y2="24" stroke="#38bdf8" stroke-width="2.5" stroke-linecap="round"/>
  <line x1="22" y1="24" x2="26" y2="8" stroke="#a78bfa" stroke-width="2.5" stroke-linecap="round"/>
  <circle cx="6" cy="8" r="2.5" fill="#22d3ee"/>
  <circle cx="10" cy="24" r="2.5" fill="#a78bfa"/>
  <circle cx="14" cy="14" r="2" fill="#22d3ee"/>
  <circle cx="16" cy="19" r="2.5" fill="#c084fc"/>
  <circle cx="18" cy="14" r="2" fill="#22d3ee"/>
  <circle cx="22" cy="24" r="2.5" fill="#a78bfa"/>
  <circle cx="26" cy="8" r="2.5" fill="#c084fc"/>
  <circle cx="6" cy="8" r="1" fill="#fff"/>
  <circle cx="16" cy="19" r="1" fill="#fff"/>
  <circle cx="26" cy="8" r="1" fill="#fff"/>
</svg>
